<?xml version="1.0" encoding="UTF-8"?>
<svg
  width="17px"
  height="7px"
  viewBox="0 0 17 7"
  stroke="none"
  stroke-width="1"
  fill="#666666"
  fill-rule="evenodd"
  version="1.1"
  xmlns="http://www.w3.org/2000/svg"
  xmlns:xlink="http://www.w3.org/1999/xlink">
  <g transform="translate(-291.000000, -219.000000)">
    <path d="M305.652,221.039481 C305.933754,220.723059 306.201542,220.371271 306.462199,219.98234 C306.615934,219.752949 306.554603,219.442364 306.325213,219.288629 C306.095822,219.134894 305.785237,219.196225 305.631502,219.425616 C304.218308,221.534268 302.662222,222.357143 299.278084,222.357143 C296.018489,222.357143 294.577155,221.554826 293.257903,219.579452 C293.104539,219.349814 292.794054,219.287981 292.564415,219.441345 C292.334776,219.594709 292.272943,219.905194 292.426307,220.134833 C292.714298,220.566054 293.011444,220.950406 293.329046,221.290002 L291.840044,222.74181 C291.642328,222.934588 291.638324,223.251145 291.831101,223.448861 C292.023878,223.646577 292.340436,223.65058 292.538151,223.457803 L294.067014,221.96713 C294.812651,222.546618 295.686055,222.934202 296.793032,223.149677 L296.061924,224.769164 C295.948302,225.020848 296.060224,225.316986 296.311908,225.430607 C296.563592,225.544229 296.859731,225.432307 296.973352,225.180623 L297.824669,223.29486 C298.273542,223.336686 298.756389,223.357143 299.278084,223.357143 C300.165921,223.357143 300.948281,223.300754 301.646699,223.182372 L302.451592,225.11077 C302.557957,225.365605 302.850768,225.485964 303.105603,225.379598 C303.360439,225.273233 303.480797,224.980422 303.374432,224.725587 L302.636229,222.956969 C303.535274,222.69303 304.280357,222.292698 304.937245,221.738858 L306.380174,223.207554 C306.5737,223.404536 306.890271,223.407338 307.087253,223.213811 C307.284235,223.020284 307.287037,222.703714 307.09351,222.506732 L305.652,221.039481 Z"></path>
  </g>
</svg>
