<?xml version="1.0" encoding="UTF-8"?>
<svg
  width="16px"
  height="9px"
  viewBox="0 0 16 9"
  stroke="none"
  stroke-width="1"
  fill="#666666"
  fill-rule="evenodd"
  version="1.1"
  xmlns="http://www.w3.org/2000/svg"
  xmlns:xlink="http://www.w3.org/1999/xlink">
  <g transform="translate(-257.000000, -218.000000)">
    <path d="M265,227 C269.418278,227 272.712698,224.340474 272.712698,222.5 C272.712698,220.659526 269.418278,218 265,218 C260.581722,218 257,220.881538 257,222.5 C257,224.118462 260.581722,227 265,227 Z M264.902708,225.269231 C266.509354,225.269231 267.811799,224.029404 267.811799,222.5 C267.811799,220.970596 266.509354,219.730769 264.902708,219.730769 C263.296061,219.730769 261.993617,220.970596 261.993617,222.5 C261.993617,224.029404 263.296061,225.269231 264.902708,225.269231 Z M264.900731,224.03009 C265.73109,224.03009 266.40423,223.356951 266.40423,222.526591 C266.40423,221.696232 265.73109,221.023093 264.900731,221.023093 C264.070371,221.023093 263.397232,221.696232 263.397232,222.526591 C263.397232,223.356951 264.070371,224.03009 264.900731,224.03009 Z"></path>
  </g>
</svg>
