<?xml version="1.0" encoding="UTF-8"?>
<svg width="14px" height="14px" fill="#666666" fill-rule="evenodd" viewBox="0 0 14 14" version="1.1" xmlns="http://www.w3.org/2000/svg" xmlns:xlink="http://www.w3.org/1999/xlink">
    <g transform="translate(-224.000000, -214.000000)">
      <path d="M231.508921,220.74097 L231.508921,216.491005 C231.508921,216.22788 231.28937,216 231.01854,216 L230.79366,216 C230.535739,216 230.303279,216.219831 230.303279,216.491005 L230.303279,221.508995 C230.303279,221.77212 230.52283,222 230.79366,222 L230.963236,222 L235.504106,222 C235.774024,222 236,221.777216 236,221.502398 L236,221.238572 C236,220.960276 235.773659,220.74097 235.494454,220.74097 L231.508921,220.74097 Z M231,228 C234.865993,228 238,224.865993 238,221 C238,217.134007 234.865993,214 231,214 C227.134007,214 224,217.134007 224,221 C224,224.865993 227.134007,228 231,228 Z"></path>
    </g>
</svg>
