<?xml version="1.0" encoding="UTF-8"?>
<svg width="21px" height="11px" viewBox="0 0 21 11" fill="#666666" version="1.1" xmlns="http://www.w3.org/2000/svg" xmlns:xlink="http://www.w3.org/1999/xlink">
  <g transform="translate(-254.000000, -216.000000)">
    <g transform="translate(254.000000, 216.000000)">
      <path d="M10.5,11 C5.57468241,11 0,7.62570192 0,5.5 C0,3.37429808 5.57468241,0 10.5,0 C15.5813867,0 21,3.16369379 21,5.5 C21,7.83630621 15.5813867,11 10.5,11 Z M10.5,10.2666667 C15.2754324,10.2666667 20.3636364,7.2958846 20.3636364,5.5 C20.3636364,3.7041154 15.2754324,0.733333333 10.5,0.733333333 C8.00302871,0.733333333 5.51866773,1.50061195 3.44832453,2.75376945 C1.7961249,3.75382894 0.636363636,4.97896724 0.636363636,5.5 C0.636363636,6.02103276 1.7961249,7.24617106 3.44832453,8.24623055 C5.51866773,9.49938805 8.00302871,10.2666667 10.5,10.2666667 Z"></path>
      <path d="M10.5,9.53333333 C8.30038315,9.53333333 6.51724138,7.72754849 6.51724138,5.5 C6.51724138,3.27245151 8.30038315,1.46666667 10.5,1.46666667 C12.6996168,1.46666667 14.4827586,3.27245151 14.4827586,5.5 C14.4827586,7.72754849 12.6996168,9.53333333 10.5,9.53333333 Z M10.5,8.8 C12.2996865,8.8 13.7586207,7.32253967 13.7586207,5.5 C13.7586207,3.67746033 12.2996865,2.2 10.5,2.2 C8.70031349,2.2 7.24137931,3.67746033 7.24137931,5.5 C7.24137931,7.32253967 8.70031349,8.8 10.5,8.8 Z"></path>
    </g>
  </g>
</svg>
